<svg width="25.000000" height="29.000000" viewBox="0 0 25 29" fill="none" xmlns="http://www.w3.org/2000/svg" xmlns:xlink="http://www.w3.org/1999/xlink">
	<desc>
			Created with Pixso.
	</desc>
	<defs/>
	<path id="Icon_36_" d="M14.88 -0.4L9.12 -0.4C3.57 -0.4 -0.96 4.13 -0.96 9.68L-0.96 14C-0.96 17.88 1.3 21.45 4.8 23.1L4.8 27.93C4.8 28.36 5.34 28.58 5.62 28.25L9.8 24.08L14.88 24.08C20.42 24.08 24.96 19.54 24.96 14L24.96 9.68C24.96 4.13 20.42 -0.4 14.88 -0.4ZM18.66 18.5L17.18 19.94C15.63 21.45 11.64 19.72 8.11 16.12C4.58 12.52 3.03 8.49 4.51 6.98L5.95 5.54C6.49 5 7.39 5.03 8 5.57L10.09 7.73C10.84 8.49 10.52 9.78 9.55 10.07C8.86 10.29 8.4 11.04 8.61 11.73C8.97 13.31 10.99 15.33 12.5 15.72C13.18 15.87 13.94 15.51 14.19 14.82C14.52 13.85 15.81 13.56 16.53 14.32L18.62 16.48C19.2 16.98 19.2 17.88 18.66 18.5ZM13.29 6.44C13.15 6.44 13 6.44 12.86 6.47C12.61 6.51 12.36 6.29 12.32 6.04C12.28 5.79 12.5 5.54 12.75 5.5C12.93 5.46 13.11 5.46 13.29 5.46C15.92 5.46 18.08 7.62 18.08 10.25C18.08 10.43 18.08 10.61 18.04 10.79C18.01 11.04 17.76 11.26 17.5 11.22C17.25 11.19 17.04 10.94 17.07 10.68C17.07 10.54 17.11 10.4 17.11 10.25C17.14 8.16 15.42 6.44 13.29 6.44ZM16.17 10.29C16.17 10.54 15.96 10.76 15.7 10.76C15.45 10.76 15.24 10.54 15.24 10.29C15.24 9.24 14.37 8.38 13.33 8.38C13.08 8.38 12.86 8.16 12.86 7.91C12.86 7.66 13.08 7.44 13.33 7.44C14.88 7.41 16.17 8.7 16.17 10.29ZM19.84 11.84C19.77 12.09 19.52 12.27 19.23 12.2C18.98 12.12 18.84 11.87 18.91 11.62C19.02 11.19 19.05 10.76 19.05 10.29C19.05 7.12 16.46 4.53 13.29 4.53C13.15 4.53 13 4.53 12.86 4.53C12.61 4.53 12.36 4.35 12.36 4.1C12.36 3.84 12.54 3.59 12.79 3.59C12.97 3.59 13.15 3.56 13.29 3.56C17 3.56 20.02 6.58 20.02 10.29C20.02 10.79 19.95 11.33 19.84 11.84Z" fill="#FFFFFF" fill-opacity="1.000000" fill-rule="nonzero"/>
</svg>
