<svg width="158.000000" height="88.000000" viewBox="0 0 158 88" fill="none" xmlns="http://www.w3.org/2000/svg" xmlns:xlink="http://www.w3.org/1999/xlink">
	<desc>
			Created with Pixso.
	</desc>
	<defs/>
	<path id="Vector 7" d="M63.58 -0.39Q61.39 -0.62 59.23 -0.69Q58.81 -0.7 58.51 -0.42Q58.21 -0.13 58.2 0.28Q58.19 0.69 58.47 0.99Q58.75 1.3 59.17 1.31Q61.25 1.37 63.37 1.6Q63.78 1.64 64.1 1.38Q64.42 1.12 64.47 0.71Q64.51 0.3 64.25 -0.02Q63.99 -0.35 63.58 -0.39ZM53.48 -0.57Q51.99 -0.47 50.51 -0.28Q50.1 -0.23 49.85 0.1Q49.6 0.43 49.65 0.84Q49.7 1.25 50.03 1.5Q50.35 1.76 50.77 1.7Q52.21 1.52 53.65 1.42Q54.32 1.37 54.99 1.34Q55.4 1.32 55.68 1.02Q55.96 0.71 55.94 0.3Q55.92 -0.12 55.61 -0.4Q55.31 -0.68 54.89 -0.66Q54.18 -0.62 53.48 -0.57ZM72.15 1.13Q70.06 0.62 68 0.25Q67.6 0.17 67.26 0.41Q66.92 0.65 66.84 1.05Q66.77 1.46 67.01 1.8Q67.24 2.14 67.65 2.21Q69.64 2.57 71.67 3.07Q72.07 3.17 72.43 2.96Q72.78 2.74 72.88 2.34Q72.98 1.94 72.76 1.58Q72.55 1.23 72.15 1.13ZM46.19 0.44Q44.09 0.87 41.98 1.47Q41.58 1.58 41.38 1.95Q41.18 2.31 41.29 2.71Q41.4 3.11 41.76 3.31Q42.13 3.51 42.52 3.4Q44.56 2.82 46.6 2.4Q47 2.31 47.23 1.97Q47.46 1.62 47.37 1.22Q47.29 0.81 46.94 0.58Q46.6 0.36 46.19 0.44ZM80.62 3.75Q78.46 2.95 76.34 2.29Q75.94 2.17 75.58 2.36Q75.21 2.56 75.09 2.95Q74.97 3.35 75.16 3.72Q75.35 4.08 75.75 4.2Q77.82 4.84 79.93 5.63Q80.32 5.77 80.69 5.6Q81.07 5.42 81.21 5.03Q81.36 4.65 81.18 4.27Q81.01 3.89 80.62 3.75ZM37.82 2.81Q35.77 3.55 33.69 4.45Q33.31 4.61 33.16 5Q33.01 5.38 33.18 5.76Q33.34 6.14 33.73 6.3Q34.11 6.45 34.49 6.28Q36.51 5.41 38.5 4.69Q38.89 4.55 39.07 4.18Q39.24 3.8 39.1 3.41Q38.96 3.02 38.59 2.85Q38.21 2.67 37.82 2.81ZM88.43 7.04Q86.45 6.11 84.5 5.29Q84.12 5.13 83.74 5.28Q83.36 5.44 83.19 5.82Q83.03 6.2 83.19 6.59Q83.34 6.97 83.73 7.13Q85.63 7.94 87.57 8.85Q87.95 9.03 88.34 8.89Q88.73 8.75 88.9 8.38Q89.08 8 88.94 7.61Q88.8 7.22 88.43 7.04ZM29.84 6.25Q27.93 7.21 25.99 8.3Q25.63 8.51 25.51 8.91Q25.4 9.31 25.61 9.67Q25.81 10.03 26.21 10.14Q26.61 10.25 26.97 10.05Q28.87 8.97 30.74 8.04Q31.11 7.85 31.24 7.46Q31.37 7.07 31.18 6.7Q31 6.33 30.6 6.2Q30.21 6.07 29.84 6.25ZM94.47 10.12Q93.45 9.56 92.43 9.03Q92.07 8.84 91.67 8.97Q91.28 9.09 91.09 9.46Q90.89 9.83 91.02 10.22Q91.14 10.62 91.51 10.81Q92.51 11.33 93.52 11.87Q94.41 12.36 95.29 12.88Q95.65 13.09 96.05 12.99Q96.45 12.89 96.66 12.53Q96.87 12.18 96.77 11.78Q96.67 11.37 96.31 11.16Q95.4 10.62 94.47 10.12ZM22.17 10.57Q20.42 11.66 18.63 12.87Q18.29 13.11 18.21 13.51Q18.13 13.92 18.36 14.26Q18.6 14.6 19 14.68Q19.41 14.76 19.75 14.53Q21.51 13.34 23.23 12.27Q23.58 12.05 23.68 11.65Q23.77 11.24 23.55 10.89Q23.33 10.54 22.93 10.45Q22.52 10.35 22.17 10.57ZM103.1 15.92Q101.48 14.6 99.82 13.43Q99.48 13.19 99.07 13.26Q98.66 13.34 98.42 13.67Q98.18 14.01 98.26 14.42Q98.33 14.83 98.67 15.07Q100.28 16.2 101.84 17.47Q102.16 17.73 102.57 17.69Q102.98 17.65 103.24 17.33Q103.5 17.01 103.46 16.59Q103.42 16.18 103.1 15.92ZM15.07 15.37Q13.3 16.65 11.48 18.05Q11.15 18.31 11.1 18.72Q11.04 19.13 11.3 19.46Q11.55 19.79 11.96 19.84Q12.37 19.89 12.7 19.64Q14.5 18.25 16.24 16.99Q16.58 16.75 16.65 16.34Q16.71 15.93 16.47 15.59Q16.22 15.26 15.82 15.19Q15.41 15.13 15.07 15.37ZM109.14 21.53Q107.68 20.01 106.2 18.63Q105.9 18.34 105.49 18.36Q105.07 18.37 104.79 18.68Q104.51 18.98 104.52 19.39Q104.54 19.81 104.84 20.09Q106.28 21.43 107.69 22.91Q107.98 23.21 108.39 23.22Q108.8 23.23 109.1 22.94Q109.4 22.66 109.41 22.24Q109.42 21.83 109.14 21.53ZM8.2 20.64Q6.57 21.96 4.88 23.38Q4.57 23.64 4.53 24.06Q4.5 24.47 4.76 24.78Q5.03 25.1 5.44 25.14Q5.85 25.17 6.17 24.91Q7.84 23.5 9.45 22.2Q9.78 21.94 9.82 21.53Q9.86 21.11 9.6 20.79Q9.34 20.47 8.93 20.43Q8.52 20.38 8.2 20.64ZM114.51 27.77Q113.21 26.11 111.91 24.6Q111.64 24.28 111.23 24.25Q110.81 24.22 110.5 24.49Q110.19 24.76 110.15 25.17Q110.12 25.59 110.39 25.9Q111.66 27.38 112.94 29Q113.19 29.33 113.61 29.38Q114.02 29.43 114.34 29.17Q114.67 28.92 114.72 28.51Q114.77 28.09 114.51 27.77ZM1.52 26.26L-0.17 27.74L1.16 29.25L2.85 27.76Q3.16 27.48 3.18 27.07Q3.21 26.66 2.94 26.35Q2.66 26.04 2.25 26.01Q1.83 25.98 1.52 26.26ZM119.36 34.41Q118.15 32.64 116.98 31.04Q116.74 30.71 116.33 30.64Q115.92 30.58 115.59 30.82Q115.25 31.07 115.19 31.48Q115.12 31.88 115.37 32.22Q116.51 33.8 117.71 35.54Q117.94 35.89 118.35 35.96Q118.76 36.04 119.1 35.8Q119.44 35.57 119.52 35.16Q119.59 34.76 119.36 34.41ZM123.83 41.25Q122.66 39.41 121.62 37.81Q121.4 37.47 120.99 37.38Q120.59 37.3 120.24 37.52Q119.89 37.75 119.81 38.15Q119.72 38.56 119.95 38.91Q120.98 40.48 122.13 42.32Q122.35 42.67 122.76 42.76Q123.16 42.85 123.51 42.63Q123.86 42.41 123.95 42.01Q124.05 41.6 123.83 41.25ZM128.12 48.2L125.99 44.74Q125.78 44.38 125.37 44.29Q124.97 44.19 124.62 44.41Q124.27 44.63 124.17 45.03Q124.07 45.43 124.29 45.78L126.42 49.25Q126.63 49.6 127.04 49.7Q127.44 49.79 127.79 49.58Q128.14 49.36 128.24 48.96Q128.34 48.55 128.12 48.2ZM132.39 55.12L130.24 51.66Q130.02 51.31 129.62 51.21Q129.22 51.12 128.87 51.34Q128.51 51.56 128.42 51.96Q128.33 52.36 128.55 52.72L130.7 56.18Q130.92 56.53 131.32 56.62Q131.72 56.72 132.07 56.5Q132.43 56.28 132.52 55.87Q132.61 55.47 132.39 55.12ZM136.83 61.93Q135.74 60.33 134.58 58.54Q134.36 58.2 133.95 58.11Q133.54 58.02 133.2 58.25Q132.85 58.47 132.76 58.88Q132.68 59.28 132.9 59.63Q134.07 61.43 135.17 63.05Q135.4 63.39 135.81 63.47Q136.22 63.55 136.56 63.32Q136.9 63.08 136.98 62.68Q137.06 62.27 136.83 61.93ZM141.56 68.5Q140.36 66.95 139.15 65.25Q138.91 64.92 138.5 64.85Q138.09 64.78 137.75 65.03Q137.42 65.27 137.35 65.68Q137.28 66.09 137.52 66.42Q138.76 68.14 139.97 69.72Q140.23 70.05 140.64 70.1Q141.05 70.15 141.37 69.9Q141.7 69.65 141.76 69.24Q141.81 68.83 141.56 68.5ZM146.72 74.7Q145.39 73.24 144.08 71.65Q143.81 71.33 143.4 71.29Q142.99 71.26 142.67 71.52Q142.35 71.79 142.31 72.2Q142.27 72.61 142.54 72.93Q143.88 74.55 145.24 76.04Q145.52 76.35 145.93 76.37Q146.35 76.39 146.65 76.11Q146.96 75.83 146.98 75.42Q147 75 146.72 74.7ZM154.06 84.34Q153.9 84.13 153.86 83.85Q153.82 83.44 154.07 83.11Q154.33 82.79 154.74 82.74Q154.97 82.72 155.16 82.78L154.35 77.22C154.27 76.67 154.64 76.17 155.2 76.09C155.75 76.01 156.25 76.38 156.33 76.93L157.49 84.85Q157.49 84.86 157.49 84.87Q157.52 85.1 157.45 85.3Q157.45 85.3 157.45 85.31C157.34 85.66 157.03 85.93 156.64 85.98L148.72 87.14C148.17 87.22 147.67 86.85 147.59 86.29C147.51 85.74 147.88 85.24 148.43 85.16L154.06 84.34ZM152.39 80.35Q150.92 79.03 149.49 77.6Q149.19 77.31 148.78 77.31Q148.37 77.31 148.07 77.6Q147.78 77.89 147.78 78.31Q147.78 78.72 148.07 79.01Q149.55 80.49 151.06 81.84Q151.37 82.11 151.78 82.09Q152.2 82.07 152.47 81.76Q152.75 81.45 152.73 81.04Q152.7 80.62 152.39 80.35Z" fill="#D7D7D7" fill-opacity="1.000000" fill-rule="evenodd"/>
</svg>
