<svg width="148.000000" height="47.000000" viewBox="0 0 148 47" fill="none" xmlns="http://www.w3.org/2000/svg" xmlns:xlink="http://www.w3.org/1999/xlink">
	<desc>
			Created with Pixso.
	</desc>
	<defs/>
	<path id="Vector 9" d="M53.09 -0.46Q51.04 -0.53 49.07 -0.52Q48.66 -0.52 48.37 -0.22Q48.08 0.07 48.08 0.49Q48.08 0.9 48.38 1.19Q48.67 1.48 49.09 1.48Q51.01 1.47 53.02 1.54Q53.43 1.56 53.74 1.28Q54.04 1 54.06 0.58Q54.07 0.17 53.79 -0.14Q53.51 -0.44 53.09 -0.46ZM45.16 -0.4Q42.94 -0.27 40.85 -0.01Q40.43 0.04 40.18 0.37Q39.93 0.7 39.98 1.11Q40.03 1.52 40.35 1.77Q40.68 2.03 41.09 1.98Q43.12 1.73 45.28 1.6Q45.69 1.58 45.97 1.27Q46.24 0.96 46.22 0.54Q46.2 0.13 45.89 -0.14Q45.58 -0.42 45.16 -0.4ZM59.59 0Q58.47 -0.11 57.36 -0.2Q56.95 -0.23 56.63 0.03Q56.32 0.3 56.29 0.72Q56.25 1.13 56.52 1.44Q56.79 1.76 57.2 1.79Q58.29 1.88 59.4 1.99L61.54 2.22Q61.95 2.26 62.27 2Q62.59 1.74 62.63 1.33Q62.68 0.91 62.42 0.59Q62.16 0.27 61.74 0.23L59.59 0ZM36.85 0.63Q34.8 1.03 32.87 1.57Q32.47 1.69 32.27 2.05Q32.07 2.41 32.18 2.81Q32.29 3.21 32.65 3.41Q33.01 3.61 33.41 3.5Q35.26 2.98 37.23 2.59Q37.64 2.51 37.87 2.17Q38.1 1.82 38.02 1.42Q37.94 1.01 37.6 0.78Q37.25 0.55 36.85 0.63ZM69.82 1.3Q67.89 1 65.84 0.72Q65.43 0.67 65.1 0.92Q64.78 1.17 64.72 1.58Q64.67 1.99 64.92 2.32Q65.17 2.65 65.58 2.71Q67.6 2.98 69.51 3.28L69.82 1.3ZM77.9 2.86Q75.98 2.41 73.92 2.02Q73.52 1.94 73.17 2.18Q72.83 2.41 72.75 2.82Q72.67 3.22 72.91 3.56Q73.14 3.91 73.55 3.99Q75.56 4.37 77.45 4.81Q77.85 4.9 78.2 4.68Q78.55 4.46 78.65 4.06Q78.74 3.65 78.52 3.3Q78.3 2.95 77.9 2.86ZM28.87 2.91Q26.97 3.64 25.19 4.54Q24.82 4.73 24.69 5.12Q24.56 5.52 24.75 5.89Q24.93 6.26 25.33 6.39Q25.72 6.52 26.09 6.33Q27.78 5.47 29.6 4.77Q29.98 4.62 30.15 4.24Q30.32 3.86 30.17 3.48Q30.02 3.09 29.64 2.92Q29.26 2.76 28.87 2.91ZM85.85 5.07Q83.94 4.43 81.88 3.86Q81.48 3.75 81.12 3.96Q80.76 4.16 80.65 4.56Q80.54 4.96 80.74 5.32Q80.95 5.68 81.35 5.79Q83.35 6.35 85.21 6.97Q85.61 7.1 85.98 6.92Q86.35 6.73 86.48 6.34Q86.61 5.95 86.43 5.58Q86.24 5.21 85.85 5.07ZM93.63 8.26Q91.74 7.32 89.72 6.5Q89.33 6.35 88.95 6.51Q88.57 6.67 88.42 7.05Q88.26 7.44 88.42 7.82Q88.58 8.2 88.97 8.36Q90.92 9.15 92.75 10.05Q93.12 10.24 93.51 10.1Q93.91 9.97 94.09 9.6Q94.27 9.23 94.14 8.83Q94.01 8.44 93.63 8.26ZM21.51 6.66Q19.8 7.76 18.2 9.06Q17.88 9.32 17.83 9.73Q17.79 10.14 18.05 10.46Q18.31 10.79 18.72 10.83Q19.13 10.88 19.45 10.62Q20.98 9.39 22.6 8.33Q22.95 8.11 23.03 7.7Q23.12 7.3 22.89 6.95Q22.67 6.6 22.26 6.52Q21.86 6.43 21.51 6.66ZM100.64 12.35Q98.89 11.16 97.15 10.15Q96.8 9.94 96.4 10.05Q96 10.15 95.79 10.51Q95.58 10.87 95.68 11.27Q95.79 11.67 96.15 11.88Q97.83 12.86 99.52 14Q99.86 14.23 100.27 14.16Q100.68 14.08 100.91 13.74Q101.14 13.39 101.06 12.99Q100.98 12.58 100.64 12.35ZM15.07 11.85Q13.64 13.25 12.26 14.86Q11.99 15.17 12.02 15.58Q12.05 16 12.36 16.27Q12.68 16.54 13.09 16.51Q13.5 16.48 13.77 16.16Q15.1 14.62 16.47 13.27Q16.77 12.98 16.77 12.57Q16.78 12.16 16.49 11.86Q16.2 11.56 15.78 11.56Q15.37 11.56 15.07 11.85ZM107.14 17.22Q105.37 15.8 103.97 14.74Q103.64 14.49 103.23 14.55Q102.82 14.6 102.57 14.93Q102.32 15.26 102.38 15.67Q102.43 16.08 102.76 16.33Q104.14 17.38 105.88 18.78Q106.21 19.04 106.62 18.99Q107.03 18.95 107.29 18.63Q107.55 18.3 107.51 17.89Q107.46 17.48 107.14 17.22ZM9.67 18.08Q8.51 19.62 7.29 21.43Q7.05 21.77 7.13 22.18Q7.21 22.59 7.55 22.82Q7.9 23.05 8.3 22.97Q8.71 22.9 8.94 22.55Q10.14 20.78 11.27 19.28Q11.52 18.95 11.46 18.54Q11.4 18.13 11.07 17.88Q10.74 17.63 10.33 17.69Q9.92 17.75 9.67 18.08ZM113.44 22.34Q112.21 21.36 110.28 19.78Q109.96 19.52 109.55 19.56Q109.13 19.6 108.87 19.92Q108.61 20.24 108.65 20.65Q108.69 21.07 109.01 21.33Q110.95 22.91 112.2 23.9Q112.52 24.16 112.93 24.11Q113.35 24.07 113.6 23.74Q113.86 23.42 113.81 23.01Q113.77 22.59 113.44 22.34ZM5.04 24.87L2.88 28.32Q2.66 28.67 2.75 29.08Q2.85 29.48 3.2 29.7Q3.55 29.92 3.95 29.83Q4.36 29.73 4.57 29.38L6.73 25.93Q6.95 25.58 6.86 25.18Q6.76 24.77 6.41 24.55Q6.06 24.33 5.66 24.43Q5.25 24.52 5.04 24.87ZM119.89 27.17Q118.23 26.01 116.53 24.73Q116.2 24.48 115.79 24.54Q115.38 24.59 115.13 24.93Q114.88 25.26 114.93 25.67Q114.99 26.08 115.32 26.33Q117.06 27.63 118.75 28.81Q119.09 29.05 119.5 28.98Q119.9 28.9 120.14 28.57Q120.38 28.23 120.31 27.82Q120.23 27.41 119.89 27.17ZM126.73 31.56Q124.96 30.52 123.26 29.42Q122.91 29.2 122.5 29.29Q122.1 29.38 121.88 29.73Q121.65 30.08 121.74 30.48Q121.83 30.88 122.18 31.11Q123.91 32.22 125.71 33.28Q126.07 33.49 126.47 33.39Q126.87 33.28 127.08 32.92Q127.29 32.57 127.19 32.17Q127.08 31.77 126.73 31.56ZM0.74 31.75L-0.35 33.46L1.34 34.53L2.42 32.83Q2.65 32.48 2.56 32.08Q2.47 31.67 2.12 31.45Q1.77 31.23 1.37 31.32Q0.96 31.41 0.74 31.75ZM133.78 35.37Q131.95 34.46 130.21 33.52Q129.85 33.32 129.45 33.44Q129.05 33.56 128.86 33.92Q128.66 34.29 128.78 34.69Q128.9 35.08 129.26 35.28Q131.03 36.24 132.89 37.16Q133.26 37.34 133.65 37.21Q134.04 37.08 134.23 36.71Q134.41 36.34 134.28 35.95Q134.15 35.55 133.78 35.37ZM143.93 42.04Q143.7 41.89 143.58 41.62Q143.42 41.24 143.57 40.85Q143.72 40.47 144.1 40.3Q144.35 40.19 144.61 40.22L142.32 35.1C142.09 34.59 142.32 34 142.83 33.78C143.34 33.55 143.92 33.77 144.15 34.28L147.41 41.58L147.41 41.59Q147.41 41.59 147.41 41.59Q147.41 41.6 147.42 41.61Q147.51 41.82 147.5 42.04L147.5 42.04C147.49 42.26 147.41 42.47 147.27 42.64Q147.13 42.81 146.91 42.91Q146.91 42.91 146.9 42.91L146.9 42.91L139.6 46.17C139.09 46.4 138.5 46.17 138.28 45.66C138.05 45.15 138.27 44.57 138.78 44.34L143.93 42.04ZM141.11 38.74Q139.24 37.94 137.45 37.12Q137.08 36.95 136.69 37.09Q136.3 37.24 136.13 37.61Q135.95 37.99 136.1 38.38Q136.24 38.77 136.62 38.94Q138.43 39.77 140.32 40.58Q140.7 40.74 141.09 40.59Q141.47 40.43 141.63 40.05Q141.8 39.67 141.64 39.29Q141.49 38.9 141.11 38.74Z" fill="#D7D7D7" fill-opacity="1.000000" fill-rule="evenodd"/>
</svg>
