<svg width="137.000000" height="63.000000" viewBox="0 0 137 63" fill="none" xmlns="http://www.w3.org/2000/svg" xmlns:xlink="http://www.w3.org/1999/xlink">
	<desc>
			Created with Pixso.
	</desc>
	<defs/>
	<path id="Vector 8" d="M132.24 3.06Q132.1 3.32 131.83 3.47Q131.46 3.67 131.06 3.54Q130.67 3.42 130.47 3.06Q130.33 2.79 130.36 2.51L125.43 5.17C124.93 5.44 124.34 5.26 124.07 4.77C123.81 4.27 123.99 3.68 124.48 3.41L131.52 -0.38L131.52 -0.39Q131.52 -0.39 131.53 -0.39Q131.74 -0.5 131.96 -0.51C132.33 -0.52 132.69 -0.33 132.88 0.02L132.88 0.03L136.67 7.06C136.94 7.56 136.76 8.15 136.27 8.42C135.77 8.68 135.18 8.5 134.91 8.01L132.24 3.06ZM129.06 6.4Q128.36 8.46 127.64 10.42Q127.49 10.81 127.67 11.19Q127.84 11.57 128.23 11.71Q128.62 11.85 128.99 11.68Q129.37 11.51 129.51 11.12Q130.25 9.13 130.96 7.04Q131.09 6.65 130.91 6.28Q130.73 5.91 130.33 5.77Q129.94 5.64 129.57 5.82Q129.2 6.01 129.06 6.4ZM126.08 14.44Q125.25 16.47 124.39 18.4Q124.22 18.78 124.36 19.16Q124.51 19.55 124.89 19.72Q125.27 19.89 125.65 19.74Q126.04 19.6 126.21 19.22Q127.09 17.26 127.93 15.2Q128.09 14.81 127.92 14.43Q127.76 14.05 127.38 13.89Q127 13.74 126.61 13.9Q126.23 14.06 126.08 14.44ZM122.57 22.23Q121.6 24.2 120.57 26.06Q120.37 26.42 120.48 26.82Q120.6 27.22 120.96 27.42Q121.32 27.62 121.72 27.5Q122.12 27.39 122.32 27.03Q123.37 25.13 124.37 23.12Q124.55 22.75 124.42 22.36Q124.29 21.97 123.92 21.78Q123.54 21.6 123.15 21.73Q122.76 21.86 122.57 22.23ZM2.07 24.77Q1.38 24.01 0.72 23.31L-0.73 24.68Q-0.09 25.36 0.58 26.11Q0.86 26.42 1.27 26.44Q1.69 26.46 1.99 26.18Q2.3 25.91 2.32 25.49Q2.34 25.08 2.07 24.77ZM7.32 30.9L4.71 27.8Q4.45 27.48 4.03 27.45Q3.62 27.41 3.3 27.68Q2.99 27.94 2.95 28.36Q2.92 28.77 3.18 29.09L5.79 32.19Q6.06 32.5 6.47 32.54Q6.89 32.58 7.2 32.31Q7.52 32.04 7.56 31.63Q7.59 31.22 7.32 30.9ZM118.41 29.74Q117.27 31.58 116.07 33.29Q115.84 33.63 115.91 34.04Q115.98 34.45 116.32 34.69Q116.66 34.92 117.07 34.85Q117.48 34.78 117.71 34.44Q118.94 32.68 120.11 30.8Q120.33 30.45 120.23 30.04Q120.14 29.64 119.79 29.42Q119.43 29.2 119.03 29.3Q118.63 29.39 118.41 29.74ZM12.63 37.19Q11.46 35.84 9.97 34.06Q9.7 33.75 9.29 33.71Q8.87 33.67 8.56 33.94Q8.24 34.21 8.2 34.62Q8.17 35.03 8.44 35.35Q9.94 37.14 11.12 38.5Q11.4 38.81 11.81 38.84Q12.22 38.87 12.53 38.6Q12.85 38.32 12.88 37.91Q12.9 37.5 12.63 37.19ZM113.52 36.73Q112.19 38.42 110.79 39.98Q110.51 40.29 110.53 40.7Q110.55 41.12 110.86 41.39Q111.17 41.67 111.58 41.65Q112 41.63 112.27 41.32Q113.72 39.71 115.09 37.97Q115.35 37.65 115.3 37.24Q115.25 36.82 114.93 36.57Q114.6 36.31 114.19 36.36Q113.78 36.41 113.52 36.73ZM18.11 43.09Q16.74 41.73 15.31 40.18Q15.03 39.87 14.62 39.86Q14.2 39.84 13.9 40.12Q13.59 40.4 13.58 40.82Q13.56 41.23 13.84 41.53Q15.3 43.12 16.7 44.5Q16.99 44.8 17.41 44.8Q17.82 44.79 18.11 44.5Q18.41 44.21 18.41 43.79Q18.4 43.38 18.11 43.09ZM107.84 43.04Q106.31 44.53 104.69 45.89Q104.37 46.16 104.34 46.57Q104.3 46.98 104.57 47.3Q104.83 47.62 105.24 47.65Q105.66 47.69 105.97 47.42Q107.65 46.02 109.24 44.48Q109.53 44.19 109.54 43.77Q109.55 43.36 109.26 43.06Q108.97 42.76 108.55 42.76Q108.14 42.75 107.84 43.04ZM24.08 48.41Q22.53 47.2 21 45.82Q20.69 45.54 20.28 45.57Q19.86 45.59 19.59 45.9Q19.31 46.2 19.33 46.62Q19.35 47.03 19.66 47.31Q21.24 48.73 22.84 49.98Q23.16 50.24 23.57 50.19Q23.98 50.14 24.24 49.82Q24.5 49.49 24.45 49.08Q24.4 48.67 24.08 48.41ZM99.05 50.06Q98.45 50.45 97.83 50.83Q97.48 51.05 97.38 51.45Q97.28 51.85 97.5 52.21Q97.72 52.56 98.12 52.66Q98.52 52.75 98.88 52.54Q99.55 52.12 100.21 51.69Q101.37 50.94 102.5 50.13Q102.83 49.89 102.9 49.48Q102.97 49.07 102.72 48.73Q102.48 48.4 102.07 48.33Q101.66 48.26 101.33 48.51Q100.21 49.31 99.05 50.06ZM30.63 52.88Q28.91 51.89 27.25 50.75Q26.91 50.52 26.5 50.59Q26.09 50.67 25.86 51.01Q25.62 51.35 25.7 51.76Q25.78 52.17 26.12 52.4Q27.85 53.58 29.62 54.62Q29.98 54.82 30.38 54.72Q30.78 54.61 30.99 54.25Q31.2 53.89 31.09 53.49Q30.99 53.09 30.63 52.88ZM94.1 52.93Q92.23 53.89 90.27 54.73Q89.89 54.89 89.74 55.27Q89.58 55.66 89.75 56.04Q89.91 56.42 90.29 56.58Q90.68 56.73 91.06 56.57Q93.08 55.7 95.02 54.71Q95.39 54.52 95.51 54.12Q95.64 53.73 95.45 53.36Q95.26 52.99 94.87 52.87Q94.47 52.74 94.1 52.93ZM37.73 56.3Q35.9 55.59 34.13 54.74Q33.76 54.56 33.37 54.7Q32.98 54.83 32.8 55.21Q32.62 55.58 32.75 55.97Q32.89 56.36 33.26 56.54Q35.1 57.42 37.01 58.17Q37.39 58.32 37.77 58.15Q38.15 57.98 38.3 57.6Q38.45 57.21 38.29 56.83Q38.12 56.45 37.73 56.3ZM86.36 56.24Q84.33 56.95 82.21 57.53Q81.81 57.64 81.61 58Q81.41 58.35 81.51 58.75Q81.62 59.15 81.98 59.36Q82.34 59.56 82.74 59.45Q84.92 58.86 87.01 58.13Q87.41 57.99 87.59 57.62Q87.77 57.25 87.63 56.86Q87.49 56.47 87.12 56.28Q86.75 56.1 86.36 56.24ZM45.31 58.62Q43.42 58.19 41.61 57.64Q41.21 57.52 40.85 57.72Q40.48 57.91 40.36 58.31Q40.24 58.7 40.44 59.07Q40.63 59.43 41.03 59.55Q42.91 60.12 44.87 60.57Q45.27 60.67 45.62 60.45Q45.97 60.23 46.06 59.82Q46.16 59.42 45.94 59.07Q45.72 58.72 45.31 58.62ZM78.13 58.51Q76.11 58.94 74 59.26Q73.59 59.32 73.35 59.66Q73.1 59.99 73.16 60.4Q73.23 60.81 73.56 61.06Q73.89 61.3 74.3 61.24Q76.46 60.91 78.54 60.47Q78.95 60.38 79.18 60.04Q79.4 59.69 79.32 59.29Q79.23 58.88 78.88 58.65Q78.54 58.43 78.13 58.51ZM53.38 59.91Q51.25 59.71 49.21 59.38Q48.8 59.32 48.47 59.56Q48.13 59.8 48.07 60.21Q48 60.62 48.24 60.95Q48.49 61.29 48.9 61.36Q51 61.69 53.19 61.9Q53.6 61.94 53.92 61.68Q54.24 61.42 54.28 61Q54.32 60.59 54.05 60.27Q53.79 59.95 53.38 59.91ZM67.42 60Q66.33 60.08 65.25 60.13Q64.84 60.15 64.56 60.46Q64.28 60.77 64.31 61.18Q64.33 61.6 64.63 61.87Q64.94 62.15 65.36 62.13Q66.45 62.07 67.57 61.99Q68.73 61.91 69.86 61.8L69.67 59.8Q68.56 59.91 67.42 60ZM61.09 60.25Q59.08 60.26 57.14 60.17Q56.73 60.16 56.42 60.44Q56.11 60.72 56.1 61.13Q56.08 61.54 56.36 61.85Q56.64 62.15 57.05 62.17Q59.04 62.26 61.1 62.25Q61.51 62.25 61.8 61.95Q62.09 61.66 62.09 61.25Q62.09 60.83 61.8 60.54Q61.5 60.25 61.09 60.25Z" fill="#D7D7D7" fill-opacity="1.000000" fill-rule="evenodd"/>
</svg>
