<svg width="157.000000" height="155.000000" viewBox="0 0 157 155" fill="none" xmlns="http://www.w3.org/2000/svg" xmlns:xlink="http://www.w3.org/1999/xlink">
	<desc>
			Created with Pixso.
	</desc>
	<defs>
		<clipPath id="clip4_227">
			<rect id="icon.svg - 2024-03-21T153302.545 1" width="76.000000" height="76.000000" transform="translate(40.000000 39.000000)" fill="white" fill-opacity="0"/>
		</clipPath>
	</defs>
	<path id="Ellipse 3" d="M155.5 79.5C155.5 125.8 121.95 154 78.19 154C34.43 154 1 110.09 1 63.78C1 17.47 45.74 1.5 89.5 1.5C133.25 1.5 155.5 33.19 155.5 79.5Z" fill="#D7D7D7" fill-opacity="1.000000" fill-rule="nonzero"/>
	<path id="Ellipse 4" d="M70.5 6.1e-5C114.13 6.1e-5 156.8 31.86 156.8 75.5C156.8 119.13 132.63 150.5 89 150.5C45.36 150.5 -0.81 115.06 -0.81 71.43C-0.81 27.8 26.86 6.1e-5 70.5 6.1e-5Z" fill="#EEEEEE" fill-opacity="1.000000" fill-rule="nonzero"/>
	<rect id="icon.svg - 2024-03-21T153302.545 1" width="76.000000" height="76.000000" transform="translate(40.000000 39.000000)" fill="#FFFFFF" fill-opacity="0"/>
	<g clip-path="url(#clip4_227)">
		<path id="Vector" d="M114.77 79.76C114.89 82.57 113.89 85.31 111.99 87.38C110.09 89.44 107.45 90.68 104.65 90.8C104.48 90.81 104.32 90.81 104.15 90.81C103.41 90.81 102.67 90.73 101.94 90.57C99.78 93.91 96.94 96.76 93.62 98.93C90.29 101.11 86.55 102.57 82.63 103.22C82.17 104.58 81.24 105.74 80.01 106.5C78.79 107.25 77.34 107.55 75.91 107.34C74.49 107.14 73.18 106.45 72.21 105.38C71.24 104.31 70.68 102.94 70.62 101.5C70.55 100.07 71 98.65 71.86 97.5C72.73 96.36 73.98 95.55 75.38 95.22C76.78 94.89 78.25 95.06 79.54 95.71C80.83 96.35 81.85 97.42 82.43 98.74C87.95 97.72 92.94 94.79 96.53 90.47C100.11 86.15 102.07 80.71 102.05 75.09C102.05 61.83 91.26 51.04 78 51.04C64.73 51.04 53.94 61.83 53.94 75.09C53.94 79.19 54.99 83.23 56.99 86.81C57.05 86.93 57.1 87.06 57.14 87.19C57.33 87.72 57.31 88.31 57.08 88.84C56.85 89.36 56.43 89.77 55.9 89.99C54.61 90.53 53.23 90.81 51.83 90.81C51.67 90.81 51.5 90.81 51.34 90.8C48.53 90.67 45.89 89.44 44 87.37C42.1 85.3 41.1 82.57 41.22 79.76C41.26 78.64 41.24 77.64 41.21 76.68C41.19 75.77 41.16 74.83 41.2 73.85C41.33 71.11 42.51 68.53 44.49 66.64C46.48 64.75 49.12 63.7 51.86 63.71C56.26 53.64 66.32 46.59 78 46.59C89.67 46.59 99.73 53.64 104.13 63.71C106.87 63.7 109.51 64.75 111.5 66.64C113.49 68.52 114.66 71.11 114.79 73.85C114.83 74.83 114.8 75.77 114.78 76.68C114.75 77.64 114.73 78.64 114.77 79.76ZM96.67 75.09C96.67 77.95 96.01 80.78 94.75 83.34C93.48 85.91 91.64 88.15 89.38 89.89C87.11 91.64 84.47 92.84 81.67 93.4C78.86 93.97 75.96 93.88 73.2 93.14L65.64 97.51C65.26 97.73 64.82 97.83 64.38 97.8C63.94 97.77 63.52 97.61 63.17 97.35C62.82 97.08 62.56 96.71 62.42 96.3C62.28 95.88 62.26 95.43 62.38 95L64.31 87.8C61.11 84.34 59.33 79.8 59.32 75.09C59.32 64.79 67.7 56.41 78 56.41C88.29 56.41 96.67 64.79 96.67 75.09ZM72.8 75.09C72.8 74.5 72.57 73.94 72.15 73.52C71.73 73.1 71.17 72.87 70.58 72.87L70.57 72.87C70.13 72.87 69.7 73 69.34 73.24C68.97 73.49 68.69 73.84 68.52 74.24C68.35 74.65 68.31 75.1 68.39 75.53C68.48 75.96 68.69 76.36 69 76.67C69.32 76.98 69.71 77.19 70.14 77.28C70.58 77.36 71.02 77.32 71.43 77.15C71.84 76.98 72.18 76.7 72.43 76.33C72.67 75.96 72.8 75.53 72.8 75.09L72.8 75.09ZM80.22 75.09C80.22 75.02 80.22 74.95 80.21 74.88C80.2 74.8 80.19 74.73 80.18 74.66C80.16 74.59 80.15 74.52 80.12 74.45C80.1 74.38 80.08 74.31 80.05 74.24C80.02 74.17 79.99 74.11 79.96 74.05C79.92 73.98 79.89 73.92 79.85 73.86C79.81 73.8 79.76 73.74 79.72 73.68C79.67 73.62 79.62 73.57 79.57 73.52C79.52 73.47 79.46 73.42 79.41 73.37C79.35 73.33 79.29 73.28 79.23 73.24C79.17 73.2 79.11 73.16 79.04 73.13C78.98 73.1 78.91 73.07 78.85 73.04C78.78 73.01 78.71 72.99 78.64 72.96C78.5 72.92 78.36 72.89 78.21 72.88C78 72.86 77.78 72.87 77.56 72.91C77.49 72.92 77.42 72.94 77.35 72.96C77.28 72.99 77.21 73.01 77.14 73.04C77.08 73.07 77.01 73.1 76.95 73.13C76.88 73.17 76.82 73.2 76.76 73.24C76.7 73.28 76.64 73.33 76.58 73.37C76.53 73.42 76.47 73.47 76.42 73.52C76.37 73.57 76.32 73.62 76.27 73.68C76.23 73.74 76.18 73.8 76.14 73.86C76.1 73.92 76.07 73.98 76.03 74.05C76 74.11 75.97 74.17 75.94 74.24C75.91 74.31 75.89 74.38 75.87 74.45C75.84 74.52 75.83 74.59 75.81 74.66C75.8 74.73 75.79 74.8 75.78 74.88C75.77 74.95 75.77 75.02 75.77 75.09C75.77 75.17 75.77 75.24 75.78 75.31C75.79 75.39 75.8 75.46 75.81 75.53C75.83 75.6 75.84 75.67 75.87 75.74C75.89 75.81 75.91 75.88 75.94 75.95C75.97 76.01 76 76.08 76.03 76.14C76.07 76.21 76.1 76.27 76.14 76.33C76.18 76.39 76.23 76.45 76.27 76.5C76.32 76.56 76.37 76.62 76.42 76.67C76.47 76.72 76.53 76.77 76.58 76.82C76.64 76.86 76.7 76.9 76.76 76.94C76.82 76.98 76.88 77.02 76.95 77.06C77.08 77.12 77.21 77.18 77.35 77.22C77.42 77.24 77.49 77.26 77.56 77.28C77.7 77.31 77.85 77.32 78 77.32C78.59 77.32 79.15 77.08 79.57 76.67C79.67 76.56 79.76 76.45 79.85 76.33C79.89 76.27 79.92 76.21 79.96 76.14C79.99 76.08 80.02 76.01 80.05 75.95C80.08 75.88 80.1 75.81 80.12 75.74C80.15 75.67 80.16 75.6 80.18 75.53C80.19 75.46 80.2 75.39 80.21 75.31C80.22 75.24 80.22 75.17 80.22 75.09L80.22 75.09ZM87.64 75.09C87.64 74.5 87.41 73.94 86.99 73.52C86.57 73.1 86.01 72.87 85.42 72.87L85.41 72.87C84.97 72.87 84.54 73 84.18 73.24C83.81 73.49 83.53 73.84 83.36 74.24C83.19 74.65 83.15 75.1 83.23 75.53C83.32 75.96 83.53 76.36 83.84 76.67C84.16 76.98 84.55 77.19 84.98 77.28C85.42 77.36 85.86 77.32 86.27 77.15C86.68 76.98 87.02 76.7 87.27 76.33C87.51 75.96 87.64 75.53 87.64 75.09Z" fill="#74CC05" fill-opacity="1.000000" fill-rule="nonzero"/>
	</g>
</svg>
