<svg width="157.000000" height="155.000000" viewBox="0 0 157 155" fill="none" xmlns="http://www.w3.org/2000/svg" xmlns:xlink="http://www.w3.org/1999/xlink">
	<desc>
			Created with Pixso.
	</desc>
	<defs>
		<clipPath id="clip4_303">
			<rect id="icon.svg - 2024-03-21T155531.778 1" width="76.000000" height="76.000000" transform="translate(40.199463 39.000000)" fill="white" fill-opacity="0"/>
		</clipPath>
	</defs>
	<path id="Ellipse 3" d="M155.89 79.5C155.89 125.8 122.35 154 78.59 154C34.83 154 1.39 110.09 1.39 63.78C1.39 17.47 46.14 1.5 89.89 1.5C133.65 1.5 155.89 33.19 155.89 79.5Z" fill="#D7D7D7" fill-opacity="1.000000" fill-rule="nonzero"/>
	<path id="Ellipse 4" d="M70.5 6.1e-5C114.13 6.1e-5 156.8 31.86 156.8 75.5C156.8 119.13 132.63 150.5 89 150.5C45.36 150.5 -0.81 115.06 -0.81 71.43C-0.81 27.8 26.86 6.1e-5 70.5 6.1e-5Z" fill="#EEEEEE" fill-opacity="1.000000" fill-rule="nonzero"/>
	<rect id="icon.svg - 2024-03-21T155531.778 1" width="76.000000" height="76.000000" transform="translate(40.199463 39.000000)" fill="#FFFFFF" fill-opacity="0"/>
	<g clip-path="url(#clip4_303)">
		<path id="Vector" d="M63.94 86.93C60.26 86.93 57.27 89.92 57.27 93.61C57.27 97.3 60.26 100.29 63.94 100.29C67.63 100.29 70.62 97.3 70.62 93.61C70.62 89.92 67.63 86.93 63.94 86.93ZM63.94 96.51C62.34 96.51 61.04 95.21 61.04 93.61C61.04 92 62.34 90.7 63.94 90.7C65.55 90.7 66.85 92 66.85 93.61C66.85 95.21 65.55 96.51 63.94 96.51Z" fill="#74CC05" fill-opacity="1.000000" fill-rule="nonzero"/>
		<path id="Vector" d="M99.16 86.93C95.47 86.93 92.48 89.92 92.48 93.61C92.48 97.3 95.47 100.29 99.16 100.29C102.85 100.29 105.83 97.3 105.83 93.61C105.83 89.92 102.85 86.93 99.16 86.93ZM99.16 96.51C97.55 96.51 96.25 95.21 96.25 93.61C96.25 92 97.55 90.7 99.16 90.7C100.76 90.7 102.06 92 102.06 93.61C102.06 95.21 100.76 96.51 99.16 96.51Z" fill="#74CC05" fill-opacity="1.000000" fill-rule="nonzero"/>
		<path id="Vector" d="M71.46 66.41C71.46 67.35 70.69 68.12 69.76 68.12L46.28 68.12C45.35 68.12 44.58 67.35 44.58 66.41L44.58 65.39C44.58 64.46 45.35 63.69 46.28 63.69L69.76 63.69C70.69 63.69 71.46 64.46 71.46 65.39L71.46 66.41Z" fill="#74CC05" fill-opacity="1.000000" fill-rule="nonzero"/>
		<path id="Vector" d="M112.24 76.37C109.79 75.74 108.39 75.34 107.43 73.48L104.22 66.97C103.25 65.11 100.76 63.6 98.67 63.6L94.27 63.6C94.27 63.6 93.68 63.61 93.68 63.01C93.68 61.65 93.68 57.55 93.68 57.55C93.68 55.44 92.48 53.71 89.93 53.71L54.1 53.71C50.45 53.71 48.72 55.44 48.72 57.55L48.72 60.97C48.72 60.97 48.72 61.99 49.7 61.99C54.72 61.99 69.76 61.99 69.76 61.99C71.63 61.99 73.16 63.52 73.16 65.39L73.16 66.41C73.16 68.29 71.63 69.82 69.76 69.82L49.7 69.82C49.7 69.82 48.72 69.73 48.72 70.8C48.72 71.33 48.72 71.68 48.72 71.97C48.72 72.91 50 72.91 50 72.91L63.5 72.91C65.37 72.91 66.9 74.44 66.9 76.31L66.9 77.33C66.9 79.21 65.37 80.73 63.5 80.73L50.21 80.73C50.21 80.73 48.72 80.71 48.72 81.9C48.72 83.96 48.72 90.16 48.72 90.16C48.72 92.28 50.45 94.01 52.56 94.01C52.56 94.01 54.16 94.01 54.69 94.01C55.17 94.01 55.24 93.74 55.24 93.61C55.24 88.81 59.15 84.91 63.94 84.91C68.74 84.91 72.65 88.81 72.65 93.61C72.65 93.74 72.61 94.01 72.98 94.01C77.19 94.01 90.13 94.01 90.13 94.01C90.47 94.01 90.46 93.72 90.46 93.61C90.46 88.81 94.36 84.91 99.16 84.91C103.95 84.91 107.86 88.81 107.86 93.61C107.86 93.74 107.86 94.01 108.07 94.01C110 94.01 112.39 94.01 112.39 94.01C114.48 94.01 116.19 92.3 116.19 90.21L116.19 82.99C116.19 76.9 114.27 76.9 112.24 76.37ZM105.01 76.04C105.01 76.04 96.93 76.04 94.18 76.04C93.74 76.04 93.68 75.6 93.68 75.6L93.68 66.58C93.68 66.58 93.65 66.24 94.23 66.24C95 66.24 97.31 66.24 97.31 66.24C99.17 66.24 101.4 67.59 102.25 69.24L105.11 75.03C105.23 75.27 105.36 75.47 105.5 75.66C105.6 75.8 105.43 76.04 105.01 76.04Z" fill="#74CC05" fill-opacity="1.000000" fill-rule="nonzero"/>
		<path id="Vector" d="M65.2 77.33C65.2 78.27 64.43 79.03 63.5 79.03L41.9 79.03C40.96 79.03 40.19 78.27 40.19 77.33L40.19 76.31C40.19 75.38 40.96 74.61 41.9 74.61L63.5 74.61C64.43 74.61 65.2 75.38 65.2 76.31L65.2 77.33Z" fill="#74CC05" fill-opacity="1.000000" fill-rule="nonzero"/>
	</g>
</svg>
