<svg width="157.000000" height="155.000000" viewBox="0 0 157 155" fill="none" xmlns="http://www.w3.org/2000/svg" xmlns:xlink="http://www.w3.org/1999/xlink">
	<desc>
			Created with Pixso.
	</desc>
	<defs>
		<clipPath id="clip4_275">
			<rect id="icon.svg - 2024-03-21T155437.451 1" width="76.000000" height="76.000000" transform="translate(40.000000 39.000000)" fill="white" fill-opacity="0"/>
		</clipPath>
	</defs>
	<path id="Ellipse 3" d="M155.5 79.5C155.5 125.8 121.95 154 78.19 154C34.43 154 1 110.09 1 63.78C1 17.47 45.74 1.5 89.5 1.5C133.25 1.5 155.5 33.19 155.5 79.5Z" fill="#D7D7D7" fill-opacity="1.000000" fill-rule="nonzero"/>
	<path id="Ellipse 4" d="M70.5 6.1e-5C114.13 6.1e-5 156.8 31.86 156.8 75.5C156.8 119.13 132.63 150.5 89 150.5C45.36 150.5 -0.81 115.06 -0.81 71.43C-0.81 27.8 26.86 6.1e-5 70.5 6.1e-5Z" fill="#EEEEEE" fill-opacity="1.000000" fill-rule="nonzero"/>
	<rect id="icon.svg - 2024-03-21T155437.451 1" width="76.000000" height="76.000000" transform="translate(40.000000 39.000000)" fill="#FFFFFF" fill-opacity="0"/>
	<g clip-path="url(#clip4_275)">
		<path id="Vector" d="M104.91 47.6L102.69 47.6L102.69 102.19C102.69 105.82 99.73 108.77 96.11 108.77L73.59 108.77L55.69 108.77L55.69 110.8C55.69 113.11 57.57 115 59.88 115L82.39 115L104.9 115C107.22 115 109.1 113.11 109.1 110.8L109.1 51.8C109.1 49.48 107.23 47.6 104.91 47.6Z" fill="#74CC05" fill-opacity="1.000000" fill-rule="nonzero"/>
		<path id="Vector" d="M73.59 106.39L96.1 106.39C98.42 106.39 100.3 104.51 100.3 102.19L100.3 47.6L100.3 43.19C100.3 40.88 98.42 39 96.1 39L73.59 39L66.11 39L66.11 40.38C66.12 40.53 66.13 40.68 66.13 40.83L66.13 49.98L66.13 52.33C66.13 55.59 63.48 58.24 60.22 58.24L57.87 58.24L48.72 58.24C48.6 58.24 48.47 58.23 48.35 58.23L46.89 58.23L46.89 102.19C46.89 104.51 48.77 106.39 51.09 106.39L55.69 106.39L73.59 106.39ZM74.44 92.12L59.76 92.12C58.67 92.12 57.78 91.23 57.78 90.14C57.78 89.04 58.67 88.15 59.76 88.15L74.45 88.15C75.54 88.15 76.43 89.04 76.43 90.14C76.43 91.23 75.53 92.12 74.44 92.12ZM89.12 82L59.76 82C58.67 82 57.78 81.11 57.78 80.01C57.78 78.92 58.67 78.03 59.76 78.03L89.12 78.03C90.22 78.03 91.11 78.92 91.11 80.01C91.11 81.11 90.22 82 89.12 82ZM59.76 67.27L89.12 67.27C90.22 67.27 91.11 68.16 91.11 69.26C91.11 70.35 90.22 71.24 89.12 71.24L59.76 71.24C58.67 71.24 57.78 70.35 57.78 69.26C57.78 68.16 58.67 67.27 59.76 67.27Z" fill="#74CC05" fill-opacity="1.000000" fill-rule="nonzero"/>
		<path id="Vector" d="M48.72 55.86L60.22 55.86C60.23 55.86 60.24 55.86 60.25 55.86C62.17 55.84 63.73 54.29 63.74 52.37C63.74 52.36 63.74 52.34 63.74 52.34L63.74 40.83C63.74 39.76 62.87 39.06 61.96 39.06C61.53 39.06 61.09 39.22 60.73 39.58L47.46 52.84C46.35 53.96 47.14 55.86 48.72 55.86Z" fill="#74CC05" fill-opacity="1.000000" fill-rule="nonzero"/>
	</g>
</svg>
