<svg width="157.000000" height="155.000000" viewBox="0 0 157 155" fill="none" xmlns="http://www.w3.org/2000/svg" xmlns:xlink="http://www.w3.org/1999/xlink">
	<desc>
			Created with Pixso.
	</desc>
	<defs>
		<clipPath id="clip4_319">
			<rect id="icon.svg - 2024-03-21T155603.964 1" width="76.000000" height="76.000000" transform="translate(40.000000 39.000000)" fill="white" fill-opacity="0"/>
		</clipPath>
	</defs>
	<path id="Ellipse 3" d="M155.5 79.5C155.5 125.8 121.95 154 78.19 154C34.43 154 1 110.09 1 63.78C1 17.47 45.74 1.5 89.5 1.5C133.25 1.5 155.5 33.19 155.5 79.5Z" fill="#D7D7D7" fill-opacity="1.000000" fill-rule="nonzero"/>
	<path id="Ellipse 4" d="M70.5 6.1e-5C114.13 6.1e-5 156.8 31.86 156.8 75.5C156.8 119.13 132.63 150.5 89 150.5C45.36 150.5 -0.81 115.06 -0.81 71.43C-0.81 27.8 26.86 6.1e-5 70.5 6.1e-5Z" fill="#EEEEEE" fill-opacity="1.000000" fill-rule="nonzero"/>
	<rect id="icon.svg - 2024-03-21T155603.964 1" width="76.000000" height="76.000000" transform="translate(40.000000 39.000000)" fill="#FFFFFF" fill-opacity="0"/>
	<g clip-path="url(#clip4_319)">
		<path id="Vector" d="M75.58 107.21C73.12 107.2 70.98 105.56 70.33 103.19C70.31 103.11 70.31 103.02 70.29 102.94L55.34 94.86C54.94 94.63 54.48 94.51 54.01 94.51C53.84 94.51 53.67 94.53 53.49 94.56C53.26 94.6 53.03 94.67 52.82 94.78C52.33 95.01 51.92 95.39 51.65 95.86C51.41 96.27 51.29 96.74 51.29 97.21C51.28 98.18 51.79 99.08 52.64 99.57L77.38 114.37C78.03 114.78 78.78 114.99 79.54 115L98.66 115C99.17 114.99 99.68 114.9 100.16 114.71L105.14 112.74L105.14 98.12L100.29 95.22C99.65 94.84 98.93 94.64 98.19 94.64L92.99 94.64C92.16 94.64 91.34 94.75 90.54 94.96L74.87 99.15C73.77 99.46 72.98 100.41 72.87 101.55L72.87 101.99C72.88 102.16 72.91 102.33 72.95 102.49C73.28 103.68 74.35 104.49 75.58 104.49C75.74 104.48 76.54 104.31 77.16 104.17L91.22 100.41L91.92 103.03L77.82 106.81C77.08 107 76.33 107.14 75.58 107.21Z" fill="#74CC05" fill-opacity="1.000000" fill-rule="nonzero"/>
		<path id="Vector" d="M107.85 93.28L116 93.28L116 115L107.85 115L107.85 93.28Z" fill="#74CC05" fill-opacity="1.000000" fill-rule="nonzero"/>
		<path id="Vector" d="M40 39L48.14 39L48.14 63.42L40 63.42L40 39Z" fill="#74CC05" fill-opacity="1.000000" fill-rule="nonzero"/>
		<path id="Vector" d="M55.48 60.35C57.34 61.58 59.49 62.28 61.71 62.38L61.71 55.82C60.71 55.46 59.77 54.93 58.94 54.27L58.14 53.62L59.85 51.51L60.64 52.15C63.33 54.3 67.16 54.24 69.78 52.01L70.73 51.2L78.74 59.21C79.81 60.27 81.53 60.26 82.59 59.2C83.65 58.13 83.65 56.41 82.58 55.35L73.01 45.76L74.92 43.84L78.22 47.14L89.42 47.14L84.06 41.78C82.28 39.99 79.86 38.99 77.34 39L60.28 39C59.64 39 59.02 39.14 58.46 39.43L55.41 40.95C54.4 41.45 53.27 41.7 52.13 41.66L50.85 41.61L50.85 59.35L53.97 59.35L55.48 60.35Z" fill="#74CC05" fill-opacity="1.000000" fill-rule="nonzero"/>
		<path id="Vector" d="M64.42 56.39L64.42 79.71L116 79.71L116 49.85L80.93 49.85L83.65 52.57L106.5 52.57L106.5 53.92C106.5 56.92 108.93 59.35 111.92 59.35L113.28 59.35L113.28 70.21L111.92 70.21C108.93 70.21 106.5 72.64 106.5 75.64L106.5 77L73.92 77L73.92 75.64C73.92 72.64 71.49 70.21 68.5 70.21L67.14 70.21L67.14 59.35L68.5 59.35C70.22 59.35 71.83 58.53 72.85 57.15L70.54 54.83C68.73 56.01 66.58 56.56 64.42 56.39Z" fill="#74CC05" fill-opacity="1.000000" fill-rule="nonzero"/>
		<path id="Vector" d="M80.67 62.7C79.23 62.71 77.86 62.14 76.84 61.13L74.79 59.08C73.55 60.61 71.79 61.63 69.85 61.95L69.85 67.61C73.27 68.19 75.94 70.87 76.53 74.28L103.89 74.28C104.48 70.87 107.15 68.19 110.57 67.61L110.57 61.95C107.15 61.37 104.48 58.7 103.89 55.28L85.72 55.28C86.37 56.88 86.2 58.7 85.28 60.15C87.76 57.52 91.89 57.3 94.63 59.67C97.38 62.03 97.79 66.14 95.55 69C93.31 71.85 89.23 72.44 86.27 70.34C83.32 68.24 82.54 64.18 84.5 61.14C83.48 62.14 82.1 62.7 80.67 62.7Z" fill="#74CC05" fill-opacity="1.000000" fill-rule="nonzero"/>
		<path id="Vector" d="M94.28 64.78C94.28 67.03 92.46 68.85 90.21 68.85C87.96 68.85 86.14 67.03 86.14 64.78C86.14 62.53 87.96 60.71 90.21 60.71C92.46 60.71 94.28 62.53 94.28 64.78Z" fill="#74CC05" fill-opacity="1.000000" fill-rule="nonzero"/>
	</g>
</svg>
