<svg width="172.000000" height="23.000000" viewBox="0 0 172 23" fill="none" xmlns="http://www.w3.org/2000/svg" xmlns:xlink="http://www.w3.org/1999/xlink">
	<desc>
			Created with Pixso.
	</desc>
	<defs/>
	<path id="Vector" d="M81.65 22.69L79.09 22.69L79.09 12.15L67.55 12.15L67.55 22.69L64.99 22.69L64.99 0.32L67.55 0.32L67.55 9.85L79.09 9.85L79.09 0.32L81.65 0.32L81.65 22.69Z" fill="#272727" fill-opacity="1.000000" fill-rule="nonzero"/>
	<path id="Vector" d="M99.93 22.69L87.69 22.69L87.69 0.32L99.93 0.32L99.93 2.61L90.25 2.61L90.25 9.85L99.37 9.85L99.37 12.11L90.25 12.11L90.25 20.39L99.93 20.39L99.93 22.69Z" fill="#272727" fill-opacity="1.000000" fill-rule="nonzero"/>
	<path id="Vector" d="M104.8 22.69L104.8 0.32L107.36 0.32L107.36 20.36L117.11 20.36L117.11 22.69L104.8 22.69Z" fill="#272727" fill-opacity="1.000000" fill-rule="nonzero"/>
	<path id="Vector" d="M126.63 0.32C129.46 0.32 131.53 0.88 132.84 2.02C134.15 3.14 134.8 4.75 134.8 6.85C134.8 7.8 134.65 8.7 134.34 9.56C134.04 10.41 133.55 11.16 132.87 11.81C132.18 12.45 131.29 12.96 130.17 13.34C129.07 13.71 127.72 13.89 126.12 13.89L123.44 13.89L123.44 22.69L120.88 22.69L120.88 0.32L126.63 0.32ZM126.39 2.54L123.44 2.54L123.44 11.66L125.83 11.66C127.23 11.66 128.4 11.5 129.33 11.2C130.27 10.89 130.98 10.4 131.45 9.71C131.92 9.02 132.16 8.1 132.16 6.96C132.16 5.47 131.69 4.36 130.76 3.64C129.83 2.9 128.37 2.54 126.39 2.54Z" fill="#272727" fill-opacity="1.000000" fill-rule="nonzero"/>
	<path id="Vector" d="M151.64 22.69L139.4 22.69L139.4 0.32L151.64 0.32L151.64 2.61L141.96 2.61L141.96 9.85L151.09 9.85L151.09 12.11L141.96 12.11L141.96 20.39L151.64 20.39L151.64 22.69Z" fill="#272727" fill-opacity="1.000000" fill-rule="nonzero"/>
	<path id="Vector" d="M162.45 0.32C164.25 0.32 165.74 0.55 166.91 1.01C168.1 1.45 168.98 2.14 169.56 3.07C170.14 4 170.43 5.18 170.43 6.62C170.43 7.8 170.22 8.79 169.8 9.59C169.38 10.38 168.83 11.01 168.15 11.5C167.47 11.99 166.74 12.37 165.97 12.64L172 22.69L169.02 22.69L163.64 13.35L159.07 13.35L159.07 22.69L156.51 22.69L156.51 0.32L162.45 0.32ZM162.3 2.57L159.07 2.57L159.07 11.15L162.56 11.15C164.35 11.15 165.67 10.78 166.51 10.03C167.36 9.29 167.79 8.19 167.79 6.74C167.79 5.22 167.34 4.15 166.43 3.51C165.54 2.88 164.16 2.57 162.3 2.57Z" fill="#272727" fill-opacity="1.000000" fill-rule="nonzero"/>
	<path id="Vector" d="M11.3 22.69L5.36 22.69L5.36 5.26L0 5.26L0 0.32L16.65 0.32L16.65 5.26L11.3 5.26L11.3 22.69Z" fill="#74CC05" fill-opacity="1.000000" fill-rule="nonzero"/>
	<path id="Vector" d="M34.16 15.89C34.16 17.11 33.86 18.26 33.26 19.35C32.66 20.43 31.72 21.31 30.45 21.99C29.19 22.66 27.55 23 25.55 23C24.55 23 23.67 22.95 22.9 22.86C22.15 22.77 21.45 22.62 20.8 22.41C20.15 22.2 19.47 21.92 18.77 21.59L18.77 16.2C19.96 16.81 21.17 17.28 22.38 17.61C23.59 17.92 24.69 18.08 25.67 18.08C26.26 18.08 26.74 18.01 27.11 17.87C27.49 17.73 27.78 17.53 27.96 17.29C28.14 17.03 28.23 16.74 28.23 16.41C28.23 16.03 28.09 15.7 27.82 15.44C27.56 15.16 27.14 14.87 26.56 14.58C25.98 14.28 25.21 13.92 24.26 13.48C23.45 13.09 22.71 12.69 22.05 12.28C21.4 11.88 20.84 11.41 20.36 10.89C19.9 10.36 19.55 9.74 19.3 9.04C19.05 8.33 18.92 7.5 18.92 6.54C18.92 5.11 19.27 3.9 19.96 2.93C20.66 1.95 21.63 1.22 22.87 0.73C24.13 0.24 25.57 0 27.2 0C28.64 0 29.93 0.16 31.07 0.48C32.22 0.81 33.25 1.18 34.16 1.6L32.35 6.27C31.4 5.83 30.48 5.48 29.56 5.23C28.65 4.96 27.81 4.83 27.02 4.83C26.51 4.83 26.09 4.9 25.76 5.03C25.44 5.15 25.2 5.32 25.04 5.53C24.89 5.75 24.81 5.99 24.81 6.27C24.81 6.62 24.94 6.93 25.2 7.2C25.48 7.48 25.92 7.78 26.54 8.11C27.17 8.42 28.03 8.83 29.11 9.34C30.19 9.83 31.1 10.37 31.85 10.94C32.6 11.5 33.17 12.18 33.56 12.97C33.96 13.76 34.16 14.73 34.16 15.89Z" fill="#74CC05" fill-opacity="1.000000" fill-rule="nonzero"/>
	<path id="Vector" d="M47.35 4.95C46.65 4.95 46.02 5.11 45.47 5.41C44.92 5.71 44.45 6.14 44.06 6.71C43.66 7.28 43.36 7.98 43.15 8.81C42.95 9.63 42.85 10.55 42.85 11.59C42.85 13 43.03 14.19 43.38 15.14C43.73 16.1 44.26 16.83 44.97 17.32C45.69 17.81 46.6 18.05 47.68 18.05C48.66 18.05 49.6 17.91 50.5 17.64C51.42 17.36 52.33 17.03 53.26 16.64L53.26 21.76C52.28 22.19 51.29 22.51 50.26 22.7C49.25 22.9 48.17 23 47.03 23C44.65 23 42.69 22.52 41.17 21.56C39.66 20.59 38.54 19.25 37.82 17.53C37.11 15.82 36.75 13.83 36.75 11.56C36.75 9.87 36.98 8.32 37.44 6.91C37.91 5.5 38.6 4.28 39.5 3.25C40.4 2.21 41.52 1.41 42.84 0.85C44.17 0.28 45.69 0 47.41 0C48.47 0 49.59 0.12 50.76 0.38C51.94 0.62 53.1 1.02 54.22 1.57L52.4 6.33C51.6 5.94 50.79 5.62 49.96 5.35C49.14 5.09 48.27 4.95 47.35 4.95Z" fill="#74CC05" fill-opacity="1.000000" fill-rule="nonzero"/>
</svg>
