<svg width="37.000000" height="28.000000" viewBox="0 0 37 28" fill="none" xmlns="http://www.w3.org/2000/svg" xmlns:xlink="http://www.w3.org/1999/xlink">
	<path  d="M1.59 7.97C1.59 5.84 2.35 3.98 3.87 2.39C5.47 0.79 7.42 0 9.74 0C12.06 0 14.05 0.73 15.71 2.19C17.43 3.65 18.3 5.84 18.3 8.76C18.3 11.62 16.84 14.97 13.92 18.83C11 22.61 8.15 25.64 5.37 27.9C5.23 27.96 4.97 28 4.57 28C4.17 28 3.38 27.8 2.18 27.4C0.99 27 0.26 26.67 0 26.4C3.11 22.81 5.83 19.36 8.15 16.04C6.29 15.71 4.74 14.81 3.48 13.35C2.22 11.82 1.59 10.03 1.59 7.97ZM20.29 7.97C20.29 5.84 21.05 3.98 22.57 2.39C24.16 0.79 26.12 0 28.44 0C30.76 0 32.75 0.73 34.41 2.19C36.13 3.65 37 5.84 37 8.76C37 11.62 35.54 14.97 32.62 18.83C29.7 22.61 26.85 25.64 24.06 27.9C23.93 27.96 23.67 28 23.27 28C22.87 28 22.08 27.8 20.88 27.4C19.69 27 18.96 26.67 18.69 26.4C21.81 22.81 24.53 19.36 26.85 16.04C24.99 15.71 23.44 14.81 22.18 13.35C20.92 11.82 20.29 10.03 20.29 7.97Z" fill="#47CFA9" fill-opacity="1.000000" fill-rule="nonzero"/>
</svg>
